<!DOCTYPE svg PUBLIC "-//W3C//DTD SVG 1.1//EN" "http://www.w3.org/Graphics/SVG/1.1/DTD/svg11.dtd">
<!-- Uploaded to: SVG Repo, www.svgrepo.com, Transformed by: SVG Repo Mixer Tools -->
<svg version="1.1" id="Layer_1" xmlns="http://www.w3.org/2000/svg" xmlns:xlink="http://www.w3.org/1999/xlink" viewBox="-128 -128 768.00 768.00" xml:space="preserve" width="216px" height="216px" fill="#000000">
<g id="SVGRepo_bgCarrier" stroke-width="0">
<rect x="-128" y="-128" width="768.00" height="768.00" rx="384" fill="#FFE285" strokewidth="0"/>
</g>
<g id="SVGRepo_tracerCarrier" stroke-linecap="round" stroke-linejoin="round"/>
<g id="SVGRepo_iconCarrier"> <path style="fill:#E87B5A;" d="M256,148.472l49.144-51c9.16-9.504,9.16-24.976,0-34.48c-8.688-9.016-23.712-9.016-32.4,0 L261.76,74.384c-3.016,3.136-8.504,3.136-11.52,0l-10.984-11.4C234.912,58.488,229.16,56,223.056,56 c-6.096,0-11.856,2.488-16.2,6.992c-9.16,9.496-9.16,24.976,0,34.48L256,148.472z"/> <g> <path style="fill:#FFFFFF;" d="M464,269.704V40c0-13.232-10.768-24-24-24H72c-13.232,0-24,10.768-24,24v229.704l208,73.8 L464,269.704z M195.336,51.88c7.392-7.664,17.232-11.88,27.72-11.88s20.336,4.216,27.72,11.88L256,57.304l5.216-5.416 C268.608,44.216,278.456,40,288.944,40s20.336,4.216,27.72,11.88c15.056,15.632,15.056,41.064,0,56.696l-54.904,56.968 C260.256,167.12,258.168,168,256,168c-2.176,0-4.256-0.88-5.76-2.456l-54.896-56.968C180.28,92.944,180.28,67.512,195.336,51.88z M112,184h288v16H112V184z M112,216h288v16H112V216z M112,248h288v16H112V248z M176,280h160v16H176V280z"/> <polygon style="fill:#FFFFFF;" points="32,246.808 21.272,260.224 32,264.024 "/> <polygon style="fill:#FFFFFF;" points="480,246.808 480,264.024 490.728,260.224 "/> </g> <path style="fill:#EEC97B;" d="M253.32,359.536L16,275.328V472c0,13.232,10.768,24,24,24h432c13.232,0,24-10.768,24-24V275.328 l-237.328,84.208C256.944,360.152,255.056,360.152,253.32,359.536z M456,456h16v16h-16V456z M424,456h16v16h-16V456z M392,456h16v16 h-16V456z"/> <g> <path style="fill:#3C4A53;" d="M510.224,259.016l0.024-0.016L480,221.192V40c0-22.056-17.944-40-40-40H72C49.944,0,32,17.944,32,40 v181.192L1.752,259l0.024,0.016C0.656,260.424,0,262.16,0,264v208c0,22.056,17.944,40,40,40h432c22.056,0,40-17.944,40-40V264 C512,262.16,511.344,260.424,510.224,259.016z M480,246.808l10.728,13.416l-10.728,3.8V246.808z M48,40c0-13.232,10.768-24,24-24 h368c13.232,0,24,10.768,24,24v229.704l-208,73.8l-208-73.8V40z M32,246.808v17.216l-10.728-3.808L32,246.808z M496,472 c0,13.232-10.768,24-24,24H40c-13.232,0-24-10.768-24-24V275.328l237.32,84.208c1.736,0.608,3.616,0.608,5.352,0L496,275.328V472z"/> <rect x="456" y="456" style="fill:#3C4A53;" width="16" height="16"/> <rect x="424" y="456" style="fill:#3C4A53;" width="16" height="16"/> <rect x="392" y="456" style="fill:#3C4A53;" width="16" height="16"/> <path style="fill:#3C4A53;" d="M250.24,165.544c1.504,1.576,3.584,2.456,5.76,2.456c2.168,0,4.256-0.88,5.76-2.456l54.904-56.968 c15.056-15.632,15.056-41.064,0-56.696C309.272,44.216,299.432,40,288.944,40s-20.336,4.216-27.72,11.888L256,57.304l-5.216-5.424 C243.392,44.216,233.544,40,223.056,40s-20.336,4.216-27.72,11.88c-15.056,15.632-15.056,41.064,0,56.696L250.24,165.544z M206.856,62.992C211.2,58.488,216.96,56,223.056,56c6.104,0,11.856,2.488,16.2,6.984l10.984,11.4c3.016,3.136,8.504,3.136,11.52,0 l10.984-11.392c8.688-9.016,23.712-9.016,32.4,0c9.168,9.496,9.168,24.976,0,34.48l-49.144,51l-49.144-51 C197.696,87.968,197.696,72.488,206.856,62.992z"/> <rect x="112" y="184" style="fill:#3C4A53;" width="288" height="16"/> <rect x="112" y="216" style="fill:#3C4A53;" width="288" height="16"/> <rect x="112" y="248" style="fill:#3C4A53;" width="288" height="16"/> <rect x="176" y="280" style="fill:#3C4A53;" width="160" height="16"/> </g> </g>
</svg>