<!DOCTYPE svg PUBLIC "-//W3C//DTD SVG 1.1//EN" "http://www.w3.org/Graphics/SVG/1.1/DTD/svg11.dtd">
<!-- Uploaded to: SVG Repo, www.svgrepo.com, Transformed by: SVG Repo Mixer Tools -->
<svg height="215px" width="215px" version="1.1" id="Layer_1" xmlns="http://www.w3.org/2000/svg" xmlns:xlink="http://www.w3.org/1999/xlink" viewBox="-128 -128 768.00 768.00" xml:space="preserve" fill="#000000">
<g id="SVGRepo_bgCarrier" stroke-width="0">
<rect x="-128" y="-128" width="768.00" height="768.00" rx="384" fill="#FF9D9A" strokewidth="0"/>
</g>
<g id="SVGRepo_tracerCarrier" stroke-linecap="round" stroke-linejoin="round"/>
<g id="SVGRepo_iconCarrier"> <path style="fill:#EEC97B;" d="M389.064,115.08C373.072,56.744,319.656,16,259.16,16c-59.552,0-112.752,39.944-129.352,97.152 L16,505.144V512h48c0-17.648,14.352-32,32-32h96c8.824,0,16-7.176,16-16v-16h8v-18.208c-35.384-19.984-83.664-56.808-87.696-110.568 C109.928,315.624,96,299.416,96,280c0-19.312,13.768-35.472,32-39.192V224h8l19.128-63.752C153.112,154.976,152,149.552,152,144h16 c0,38.632,83.576,80,208,80h8v16.808c18.232,3.72,32,19.88,32,39.192c0,19.416-13.928,35.624-32.304,39.224 c-4.032,53.76-52.312,90.584-87.696,110.568V448h8v16c0,8.824,7.176,16,16,16h96c17.648,0,32,14.352,32,32h48v-6.92L389.064,115.08z M328,104c0,22.056-17.944,40-40,40h-64c-22.056,0-40-17.944-40-40V72c0-3.08,1.76-5.872,4.536-7.208 c2.76-1.336,6.048-0.96,8.464,0.96l31.384,25.112l20.128-53.672C249.68,34.072,252.664,32,256,32s6.32,2.072,7.496,5.184 l20.128,53.672l31.384-25.112c2.4-1.92,5.696-2.296,8.464-0.96C326.24,66.128,328,68.92,328,72V104z"/> <g> <path style="fill:#FFFFFF;" d="M416,496h-96c-17.648,0-32-14.352-32-32v-16h8v-18.208c-19.728,11.144-35.464,17.064-37.24,17.72 c-0.896,0.32-1.824,0.488-2.76,0.488s-1.864-0.168-2.76-0.496c-1.776-0.656-17.512-6.576-37.24-17.72V448h8v16 c0,17.648-14.352,32-32,32H96c-8.824,0-16,7.176-16,16h352C432,503.176,424.824,496,416,496z"/> <path style="fill:#FFFFFF;" d="M144,312c0,70.528,94.496,112.28,112,119.408c17.504-7.128,112-48.88,112-119.408v-72.08 c-108.912-1.568-195.76-34.944-212.872-79.664L136,224h8V312z M304,248c8.84,0,16,7.16,16,16s-7.16,16-16,16s-16-7.16-16-16 S295.16,248,304,248z M256,384c9.656,0,18.832-4.656,25.84-13.112l12.32,10.216C284.056,393.288,270.504,400,256,400 s-28.056-6.712-38.16-18.888l12.32-10.216C237.168,379.344,246.344,384,256,384z M208,248c8.84,0,16,7.16,16,16s-7.16,16-16,16 s-16-7.16-16-16S199.16,248,208,248z"/> <path style="fill:#FFFFFF;" d="M128,302.528V257.48c-9.288,3.312-16,12.112-16,22.528S118.712,299.216,128,302.528z"/> <path style="fill:#FFFFFF;" d="M384,302.528c9.288-3.312,16-12.112,16-22.528s-6.712-19.216-16-22.528V302.528z"/> </g> <path style="fill:#9FC7D1;" d="M277.872,111.712c-2.472-0.68-4.464-2.496-5.368-4.896L256,62.784l-16.504,44.032 c-0.904,2.4-2.896,4.216-5.368,4.896c-2.488,0.688-5.12,0.136-7.12-1.464L200,88.648V104c0,13.232,10.768,24,24,24h64 c13.232,0,24-10.768,24-24V88.648l-27,21.6C283,111.848,280.352,112.4,277.872,111.712z"/> <g> <path style="fill:#3C4A53;" d="M256,448c0.936,0,1.864-0.168,2.76-0.496c1.776-0.656,17.512-6.576,37.24-17.72 c35.384-19.984,83.664-56.808,87.696-110.568C402.072,315.624,416,299.416,416,280c0-19.312-13.768-35.472-32-39.192V224h-8 c-124.424,0-208-41.368-208-80h-16c0,5.552,1.112,10.976,3.128,16.248C172.24,204.976,259.088,238.352,368,239.92V312 c0,70.528-94.496,112.28-112,119.408C238.496,424.28,144,382.528,144,312v-88h-8h-8v16.808c-18.232,3.72-32,19.88-32,39.192 c0,19.416,13.928,35.624,32.304,39.224c4.032,53.76,52.312,90.592,87.696,110.568c19.728,11.144,35.464,17.064,37.24,17.72 C254.136,447.832,255.064,448,256,448z M400,280c0,10.416-6.712,19.216-16,22.528V257.48C393.288,260.784,400,269.584,400,280z M128,257.472v45.048c-9.288-3.312-16-12.112-16-22.528S118.712,260.784,128,257.472z"/> <path style="fill:#3C4A53;" d="M511.712,501.88L404.496,110.84C386.6,45.576,326.832,0,259.16,0 c-66.632,0-126.144,44.696-144.72,108.68L0.32,501.768C0.104,502.496,0,503.24,0,504v8h8h8v-6.856l113.808-391.992 C146.408,55.944,199.608,16,259.16,16c60.496,0,113.912,40.744,129.904,99.08L496,505.08V512h8h8v-8 C512,503.288,511.904,502.568,511.712,501.88z"/> <path style="fill:#3C4A53;" d="M256,400c14.504,0,28.056-6.712,38.16-18.888l-12.32-10.216C274.832,379.344,265.656,384,256,384 s-18.832-4.656-25.84-13.112l-12.32,10.216C227.944,393.288,241.496,400,256,400z"/> <circle style="fill:#3C4A53;" cx="208" cy="264" r="16"/> <circle style="fill:#3C4A53;" cx="304" cy="264" r="16"/> <path style="fill:#3C4A53;" d="M416,480h-96c-8.824,0-16-7.176-16-16v-16h-8h-8v16c0,17.648,14.352,32,32,32h96 c8.824,0,16,7.176,16,16h8h8C448,494.352,433.648,480,416,480z"/> <path style="fill:#3C4A53;" d="M96,496h96c17.648,0,32-14.352,32-32v-16h-8h-8v16c0,8.824-7.176,16-16,16H96 c-17.648,0-32,14.352-32,32h8h8C80,503.176,87.176,496,96,496z"/> <path style="fill:#3C4A53;" d="M323.464,64.792c-2.768-1.336-6.064-0.96-8.464,0.96l-31.384,25.112l-20.128-53.672 C262.32,34.072,259.336,32,256,32s-6.32,2.072-7.496,5.184l-20.128,53.672l-31.384-25.112c-2.408-1.92-5.704-2.296-8.464-0.96 C185.76,66.128,184,68.92,184,72v32c0,22.056,17.944,40,40,40h64c22.056,0,40-17.944,40-40V72 C328,68.92,326.24,66.128,323.464,64.792z M312,104c0,13.232-10.768,24-24,24h-64c-13.232,0-24-10.768-24-24V88.648l27,21.6 c2,1.6,4.64,2.152,7.12,1.464c2.472-0.68,4.464-2.496,5.368-4.896L256,62.784l16.504,44.032c0.904,2.4,2.896,4.216,5.368,4.896 c2.472,0.688,5.12,0.136,7.12-1.464l27-21.6V104H312z"/> </g> </g>
</svg>