<!DOCTYPE svg PUBLIC "-//W3C//DTD SVG 1.1//EN" "http://www.w3.org/Graphics/SVG/1.1/DTD/svg11.dtd">
<!-- Uploaded to: SVG Repo, www.svgrepo.com, Transformed by: SVG Repo Mixer Tools -->
<svg height="216px" width="216px" version="1.1" id="Layer_1" xmlns="http://www.w3.org/2000/svg" xmlns:xlink="http://www.w3.org/1999/xlink" viewBox="-133.12 -133.12 778.24 778.24" xml:space="preserve" fill="#000000">
<g id="SVGRepo_bgCarrier" stroke-width="0">
<rect x="-133.12" y="-133.12" width="778.24" height="778.24" rx="389.12" fill="#FFE285" strokewidth="0"/>
</g>
<g id="SVGRepo_tracerCarrier" stroke-linecap="round" stroke-linejoin="round"/>
<g id="SVGRepo_iconCarrier"> <path style="fill:#FFFFFF;" d="M112,222.528V177.48c-9.296,3.312-16,12.112-16,22.528S102.704,219.216,112,222.528z"/> <path style="fill:#867C6B;" d="M160.32,305.984L241.776,344h28.456l81.456-38.016c19.632-9.168,32.32-29.08,32.32-50.744v-38.16 l-34.88,29.064c-1.448,1.2-3.256,1.856-5.128,1.856H168c-1.872,0-3.68-0.656-5.12-1.848L128,217.08v38.16 C128,276.904,140.68,296.824,160.32,305.984z M230.16,282.888C237.168,291.344,246.344,296,256,296s18.832-4.656,25.84-13.112 l12.32,10.216C284.056,305.288,270.504,312,256,312s-28.056-6.712-38.16-18.888L230.16,282.888z"/> <g> <path style="fill:#FFFFFF;" d="M416,200c0-10.416-6.712-19.216-16-22.528v45.048C409.288,219.216,416,210.416,416,200z"/> <path style="fill:#FFFFFF;" d="M341.104,232L384,196.248V168v-32V72c0-30.872-25.12-56-56-56H128v24c0,54.064,60.208,96,112,96v16 c-49.584,0-90.616-27.112-112-61.016V136v32v28.248L170.896,232H341.104z M304,200c-8.84,0-16-7.16-16-16s7.16-16,16-16 s16,7.16,16,16S312.84,200,304,200z M320,104c0,17.648,14.352,32,32,32v16c-26.472,0-48-21.528-48-48H320z M224,64h16 c0,39.704,32.304,72,72,72v16C263.48,152,224,112.52,224,64z M208,168c8.84,0,16,7.16,16,16s-7.16,16-16,16s-16-7.16-16-16 S199.16,168,208,168z"/> <polygon style="fill:#FFFFFF;" points="496,431.168 456,426.72 456,512 504,512 504,432 496,432 "/> <path style="fill:#FFFFFF;" d="M274.096,490.352C268.944,493.896,262.72,496,256,496s-12.944-2.104-18.096-5.648l-50.848,21.04 C186.072,511.8,185.032,512,184,512h144c-1.032,0-2.072-0.2-3.056-0.608L274.096,490.352z"/> <polygon style="fill:#FFFFFF;" points="16,431.168 16,432 8,432 8,512 56,512 56,426.72 "/> <path style="fill:#FFFFFF;" d="M359.12,415.952c-2.056-0.224-3.944-1.24-5.264-2.832l-35.944-43.136l-58.336,29.168 c-2.248,1.128-4.904,1.128-7.16,0l-58.336-29.168l-35.944,43.136c-1.32,1.584-3.208,2.6-5.264,2.832L120,419.608V512h64 c-1.56,0-3.112-0.456-4.448-1.352c-2.224-1.48-3.552-3.976-3.552-6.648v-80c0-2.672,1.328-5.168,3.552-6.648 c2.224-1.504,5.032-1.768,7.504-0.744l50.848,21.04C243.056,434.104,249.28,432,256,432s12.944,2.104,18.096,5.648l50.848-21.04 c2.464-1.024,5.28-0.76,7.504,0.744c2.216,1.48,3.552,3.976,3.552,6.648v80c0,2.672-1.336,5.168-3.552,6.648 C331.112,511.544,329.56,512,328,512h64v-92.392L359.12,415.952z"/> </g> <g> <polygon style="fill:#E87B5A;" points="72,424.944 72,512 104,512 104,421.384 "/> <polygon style="fill:#E87B5A;" points="408,421.384 408,512 440,512 440,424.944 "/> <path style="fill:#E87B5A;" d="M288,464c0,4.84-1.16,9.392-3.096,13.512L320,492.032v-56.064l-35.096,14.52 C286.84,454.608,288,459.16,288,464z"/> <circle style="fill:#E87B5A;" cx="256" cy="464" r="16"/> <path style="fill:#E87B5A;" d="M192,435.968v56.064l35.096-14.52C225.16,473.392,224,468.84,224,464s1.16-9.392,3.096-13.512 L192,435.968z"/> </g> <g> <path style="fill:#3C4A53;" d="M312,152v-16c-39.696,0-72-32.296-72-72h-16C224,112.52,263.48,152,312,152z"/> <path style="fill:#3C4A53;" d="M352,152v-16c-17.648,0-32-14.352-32-32h-16C304,130.472,325.528,152,352,152z"/> <path style="fill:#3C4A53;" d="M504.88,416.048l-140.8-15.64l-37.944-45.528c-2.368-2.848-6.4-3.696-9.72-2.032L256,383.056 l-60.424-30.208c-3.328-1.664-7.352-0.816-9.72,2.032l-37.944,45.528l-140.8,15.64C3.064,416.496,0,419.92,0,424v8h8h8v-0.832 l40-4.448V512h8h8v-87.056l32-3.552V512h8h8v-92.392l32.88-3.656c2.056-0.224,3.944-1.24,5.264-2.832l35.944-43.136l58.336,29.168 c2.248,1.128,4.904,1.128,7.16,0l58.336-29.168l35.944,43.136c1.32,1.584,3.208,2.6,5.264,2.832L392,419.608V512h8h8v-90.616 l32,3.552V512h8h8v-85.28l40,4.448V432h8h8v-8C512,419.92,508.936,416.496,504.88,416.048z"/> <path style="fill:#3C4A53;" d="M256,312c14.504,0,28.056-6.712,38.16-18.888l-12.32-10.216C274.832,291.344,265.656,296,256,296 s-18.832-4.656-25.84-13.112l-12.32,10.216C227.944,305.288,241.496,312,256,312z"/> <circle style="fill:#3C4A53;" cx="208" cy="184" r="16"/> <circle style="fill:#3C4A53;" cx="304" cy="184" r="16"/> <path style="fill:#3C4A53;" d="M112,239.192v16.048c0,27.848,16.312,53.464,41.552,65.24l83.064,38.768 c1.056,0.496,2.216,0.752,3.384,0.752h32c1.168,0,2.32-0.256,3.384-0.752l83.064-38.768C383.688,308.704,400,283.096,400,255.24 v-16.048c18.232-3.72,32-19.872,32-39.192s-13.768-35.472-32-39.192V136V72c0-39.704-32.304-72-72-72H120c-4.416,0-8,3.576-8,8v128 v24.808C93.768,164.528,80,180.68,80,200S93.768,235.472,112,239.192z M400,177.472c9.288,3.312,16,12.112,16,22.528 s-6.712,19.216-16,22.528V177.472z M128,168v-32V90.984C149.384,124.888,190.416,152,240,152v-16c-51.792,0-112-41.936-112-96V16 h200c30.88,0,56,25.128,56,56v64v32v28.248L341.104,232H170.896L128,196.248V168z M128,217.08l34.88,29.064 c1.44,1.2,3.248,1.856,5.12,1.856h176c1.872,0,3.68-0.656,5.12-1.848L384,217.08v38.16c0,21.664-12.68,41.576-32.32,50.744 L270.224,344h-28.456l-81.448-38.016c-19.64-9.16-32.32-29.08-32.32-50.744V217.08z M112,177.472v45.048 c-9.296-3.312-16-12.112-16-22.528S102.704,180.784,112,177.472z"/> <path style="fill:#3C4A53;" d="M336,504v-80c0-2.672-1.336-5.168-3.552-6.648c-2.224-1.504-5.04-1.768-7.504-0.744l-50.848,21.04 C268.944,434.104,262.72,432,256,432s-12.944,2.104-18.096,5.648l-50.848-21.04c-2.472-1.024-5.28-0.76-7.504,0.744 c-2.224,1.48-3.552,3.976-3.552,6.648v80c0,2.672,1.328,5.168,3.552,6.648C180.888,511.544,182.44,512,184,512 c1.032,0,2.072-0.2,3.056-0.608l50.848-21.04C243.056,493.896,249.28,496,256,496s12.944-2.104,18.096-5.648l50.848,21.04 C325.928,511.8,326.968,512,328,512c1.56,0,3.112-0.456,4.448-1.352C334.664,509.168,336,506.672,336,504z M227.096,477.512 L192,492.032v-56.064l35.096,14.52C225.16,454.608,224,459.16,224,464S225.16,473.392,227.096,477.512z M256,480 c-8.824,0-16-7.176-16-16s7.176-16,16-16s16,7.176,16,16S264.824,480,256,480z M320,492.032l-35.096-14.52 C286.84,473.392,288,468.84,288,464s-1.16-9.392-3.096-13.512L320,435.968V492.032z"/> </g> </g>
</svg>