<!DOCTYPE svg PUBLIC "-//W3C//DTD SVG 1.1//EN" "http://www.w3.org/Graphics/SVG/1.1/DTD/svg11.dtd">
<!-- Uploaded to: SVG Repo, www.svgrepo.com, Transformed by: SVG Repo Mixer Tools -->
<svg version="1.1" id="Layer_1" xmlns="http://www.w3.org/2000/svg" xmlns:xlink="http://www.w3.org/1999/xlink" viewBox="-122.88 -122.88 757.76 757.76" xml:space="preserve" width="215px" height="215px" fill="#000000">
<g id="SVGRepo_bgCarrier" stroke-width="0">
<rect x="-122.88" y="-122.88" width="757.76" height="757.76" rx="378.88" fill="#FFE285" strokewidth="0"/>
</g>
<g id="SVGRepo_tracerCarrier" stroke-linecap="round" stroke-linejoin="round"/>
<g id="SVGRepo_iconCarrier"> <circle style="fill:#EEC97B;" cx="408" cy="344" r="24"/> <g> <path style="fill:#FFFFFF;" d="M344,22.712C331.632,18.384,318.44,16,304.832,16H207.16c-13.6,0-26.792,2.384-39.16,6.712V32h176 V22.712z"/> <path style="fill:#FFFFFF;" d="M288.136,286.344c1.968,1.8,3.616,3.92,4.896,6.28c16.64-46.112,74.112-80.856,143.88-84.232 c-0.472-5.344-0.952-10.68-1.528-16.008C353.968,196.224,289.56,236.72,288.136,286.344z"/> </g> <g> <path style="fill:#9FC7D1;" d="M382.8,184c15.888-4.048,32.896-6.656,50.656-7.584c-2.864-22.12-6.624-44.128-11.36-65.896 c-7.72-35.544-31.248-64.672-62.096-80.808V40c0,4.424-3.584,8-8,8H160c-4.416,0-8-3.576-8-8V29.712 c-30.848,16.136-54.376,45.264-62.096,80.792c-4.736,21.776-8.496,43.776-11.36,65.904c17.76,0.928,34.768,3.544,50.656,7.584 h253.6V184z M107.816,139.456l10.808-56C120.792,72.184,130.696,64,142.184,64h227.632c11.488,0,21.392,8.184,23.56,19.464 l10.8,55.992c1.368,7.056-0.48,14.28-5.056,19.824c-4.568,5.544-11.312,8.72-18.504,8.72H131.384 c-7.184,0-13.936-3.176-18.512-8.728C108.296,153.736,106.456,146.504,107.816,139.456z"/> <path style="fill:#9FC7D1;" d="M105.736,228.144c-10.192-2.064-20.88-3.312-31.88-3.808c-0.936,13.904-1.512,27.824-1.704,41.744 c12.792-9.192,27.888-15.328,44.28-17.304L105.736,228.144z"/> </g> <g> <path style="fill:#FFFFFF;" d="M218.96,292.624c1.288-2.36,2.928-4.48,4.896-6.28c-1.424-49.624-65.832-90.12-147.248-93.96 c-0.576,5.328-1.056,10.672-1.528,16.008C144.848,211.768,202.32,246.512,218.96,292.624z"/> <path style="fill:#FFFFFF;" d="M172.256,152l-30.368-8.28l4.208-15.44L233.072,152h59.184l-30.368-8.28l4.208-15.44L353.072,152 h27.544c3.28,0,5.272-1.824,6.168-2.904c1.52-1.848,2.136-4.256,1.68-6.608l-10.808-56c-0.712-3.76-4.008-6.488-7.84-6.488H142.184 c-3.832,0-7.128,2.728-7.848,6.48l-10.808,56.008c-0.456,2.352,0.16,4.76,1.68,6.608c0.904,1.08,2.896,2.904,6.176,2.904H172.256z"/> </g> <path style="fill:#9FC7D1;" d="M395.576,248.768c16.392,1.984,31.488,8.112,44.272,17.304c-0.2-13.92-0.768-27.84-1.704-41.744 c-11,0.496-21.688,1.752-31.872,3.808L395.576,248.768z"/> <path style="fill:#E87B5A;" d="M228.136,326.928c2.84,1.592,4.432,4.76,4.008,7.992L232,336.048c0,4.368,3.592,7.952,8,7.952 c0.016,0,1.024-0.144,1.032-0.144c0.36-0.048,0.72-0.072,1.072-0.072c2.856,0,5.544,1.536,6.976,4.088 c2.896,5.152,10.936,5.152,13.832,0c1.608-2.856,4.824-4.416,8.048-4.016l1.08,0.144c4.368,0,7.96-3.584,7.96-8 c-0.008-0.024-0.144-1.056-0.144-1.08c-0.416-3.232,1.168-6.4,4.016-7.992C286.456,325.472,288,322.88,288,320 s-1.544-5.472-4.136-6.928c-2.84-1.592-4.432-4.76-4.016-7.992l0.152-1.128c0-4.368-3.592-7.952-8-7.952 c-0.016,0-1.024,0.144-1.032,0.144c-3.232,0.432-6.44-1.152-8.048-4.016c-2.896-5.152-10.936-5.152-13.832,0 c-1.608,2.864-4.8,4.456-8.048,4.016L239.96,296c-4.368,0-7.96,3.584-7.96,8c0,0.024,0.144,1.056,0.144,1.08 c0.416,3.232-1.168,6.4-4.008,7.992C225.544,314.528,224,317.12,224,320S225.544,325.472,228.136,326.928z M239.856,318.92 c-0.416-3.224,1.168-6.392,4-7.992c1.288-0.728,2.344-1.784,3.056-3.056c1.608-2.856,4.808-4.408,8.048-4.016l1.08,0.144 c0.016,0,0.984-0.144,1-0.144c3.28-0.4,6.448,1.16,8.048,4.016c0.712,1.272,1.776,2.328,3.056,3.056c2.84,1.6,4.424,4.768,4,7.992 L272,320.048c0,0.032,0.144,1.008,0.144,1.032c0.416,3.224-1.168,6.392-4,7.992c-1.288,0.728-2.344,1.784-3.056,3.056 c-1.424,2.544-4.112,4.088-6.976,4.088c-0.36,0-0.712-0.024-1.072-0.072c0,0-0.84-0.112-1.032-0.136 c-0.192,0.024-1.024,0.136-1.032,0.136c-3.248,0.432-6.44-1.152-8.048-4.016c-0.712-1.272-1.776-2.328-3.056-3.056 c-2.84-1.6-4.424-4.768-4-7.992l0.128-1.128C239.992,319.92,239.856,318.944,239.856,318.92z"/> <g> <path style="fill:#9FC7D1;" d="M333.192,369.072C326.632,381.728,317.168,392.128,306,400h158v-56 c0-42.896-33.976-77.92-76.416-79.816L333.192,369.072z M448,344c0,22.056-17.944,40-40,40s-40-17.944-40-40s17.944-40,40-40 S448,321.944,448,344z"/> <path style="fill:#9FC7D1;" d="M216.072,337.864C211,333.36,208,326.872,208,320c0-37.96-33.304-70.744-81.376-86.312 l66.384,128.024C205.256,385.328,229.392,400,256,400s50.744-14.672,62.992-38.288l66.384-128.024 C337.304,249.256,304,282.04,304,320c0,6.872-3.008,13.36-8.072,17.864c-0.912,11.752-10.312,21.16-22.064,22.064 C269.36,365,262.872,368,256,368c-6.872,0-13.36-3-17.864-8.072C226.384,359.024,216.984,349.616,216.072,337.864z"/> <path style="fill:#9FC7D1;" d="M256,272c6.304,0,12.2,2.616,16.624,6.944c4.048-31.968,29.248-60.168,66.696-78.944H172.672 c37.448,18.768,62.656,46.976,66.696,78.944C243.792,274.616,249.696,272,256,272z"/> </g> <circle style="fill:#EEC97B;" cx="104" cy="344" r="24"/> <g> <path style="fill:#9FC7D1;" d="M360,472c0,13.232,10.768,24,24,24h32c13.232,0,24-10.768,24-24v-8h-80V472z"/> <path style="fill:#9FC7D1;" d="M72,472c0,13.232,10.768,24,24,24h32c13.232,0,24-10.768,24-24v-8H72V472z"/> <path style="fill:#9FC7D1;" d="M178.808,369.072l-54.384-104.888C81.976,266.072,48,301.096,48,344v56h157.992 C194.824,392.12,185.368,381.728,178.808,369.072z M104,384c-22.056,0-40-17.944-40-40s17.944-40,40-40s40,17.944,40,40 S126.056,384,104,384z"/> </g> <rect x="216" y="448" style="fill:#E87B5A;" width="80" height="32"/> <path style="fill:#FFFFFF;" d="M480,416H32c-8.824,0-16,7.176-16,16s7.176,16,16,16h32h96h40v-8c0-4.424,3.584-8,8-8h96 c4.416,0,8,3.576,8,8v8h40h96h32c8.824,0,16-7.176,16-16S488.824,416,480,416z"/> <g> <path style="fill:#3C4A53;" d="M480,400v-56c0-24.6-9.376-46.992-24.648-64H456v-2.864c0-57.064-6.144-114.264-18.272-170.016 C424.24,45.048,368.352,0,304.832,0H207.16C143.648,0,87.76,45.048,74.272,107.112C62.144,162.864,56,220.072,56,277.136V280h0.648 C41.376,297.008,32,319.4,32,344v56c-17.648,0-32,14.352-32,32s14.352,32,32,32h24v8c0,22.056,17.944,40,40,40h32 c22.056,0,40-17.944,40-40v-8h32v24c0,4.424,3.584,8,8,8h96c4.416,0,8-3.576,8-8v-24h32v8c0,22.056,17.944,40,40,40h32 c22.056,0,40-17.944,40-40v-8h24c17.648,0,32-14.352,32-32S497.648,400,480,400z M464,344v56H306.008 c11.168-7.88,20.624-18.272,27.192-30.928l54.392-104.888C430.024,266.08,464,301.104,464,344z M228.136,313.072 c2.84-1.592,4.432-4.76,4.008-7.992c0-0.024-0.144-1.056-0.144-1.08c0-4.416,3.592-8,7.96-8l1.072,0.144 c3.248,0.44,6.44-1.152,8.048-4.016c2.896-5.152,10.936-5.152,13.832,0c1.608,2.864,4.816,4.448,8.048,4.016 c0.016,0,1.024-0.144,1.04-0.144c4.408,0,8,3.584,8,7.952l-0.144,1.128c-0.416,3.232,1.168,6.4,4.016,7.992 C286.456,314.528,288,317.12,288,320s-1.544,5.472-4.136,6.928c-2.84,1.592-4.432,4.76-4.016,7.992 c0.008,0.024,0.144,1.056,0.152,1.08c0,4.416-3.592,8-7.96,8l-1.072-0.144c-3.224-0.4-6.44,1.16-8.048,4.016 c-2.896,5.152-10.936,5.152-13.832,0c-1.432-2.544-4.112-4.088-6.976-4.088c-0.352,0-0.712,0.024-1.072,0.072 c-0.016,0-1.024,0.144-1.04,0.144c-4.408,0-8-3.584-8-7.952l0.144-1.128c0.416-3.232-1.168-6.4-4.008-7.992 C225.544,325.472,224,322.88,224,320S225.544,314.528,228.136,313.072z M172.672,200H339.32 c-37.448,18.768-62.656,46.976-66.696,78.944C268.2,274.616,262.304,272,256,272c-6.304,0-12.208,2.616-16.624,6.944 C235.328,246.976,210.12,218.768,172.672,200z M238.136,359.928C242.64,365,249.128,368,256,368c6.872,0,13.36-3,17.864-8.072 c11.752-0.904,21.152-10.312,22.064-22.064C300.992,333.36,304,326.872,304,320c0-37.96,33.304-70.744,81.376-86.312 l-66.384,128.024C306.744,385.328,282.608,400,256,400s-50.744-14.672-62.992-38.288l-66.384-128.024 C174.696,249.256,208,282.04,208,320c0,6.872,3,13.36,8.072,17.864C216.984,349.616,226.384,359.024,238.136,359.928z M438.144,224.336c0.936,13.904,1.512,27.824,1.704,41.744c-12.784-9.192-27.888-15.32-44.272-17.304l10.696-20.624 C416.456,226.08,427.144,224.832,438.144,224.336z M436.92,208.392c-69.768,3.368-127.24,38.12-143.88,84.232 c-1.28-2.36-2.928-4.48-4.896-6.28c1.424-49.624,65.832-90.12,147.248-93.96C435.968,197.712,436.448,203.056,436.92,208.392z M168,22.712C180.368,18.384,193.56,16,207.16,16h97.672c13.6,0,26.792,2.384,39.168,6.712V32H168V22.712z M89.904,110.512 c7.72-35.536,31.248-64.664,62.096-80.8V40c0,4.424,3.584,8,8,8h192c4.416,0,8-3.576,8-8V29.712 c30.848,16.136,54.376,45.264,62.096,80.8c4.736,21.768,8.496,43.776,11.36,65.896c-17.76,0.928-34.768,3.544-50.656,7.584H129.2 c-15.888-4.048-32.896-6.656-50.656-7.584C81.408,154.288,85.168,132.28,89.904,110.512z M76.608,192.384 c81.416,3.84,145.824,44.336,147.248,93.96c-1.968,1.8-3.608,3.92-4.896,6.28c-16.64-46.112-74.112-80.856-143.88-84.232 C75.552,203.056,76.032,197.712,76.608,192.384z M73.856,224.336c11,0.496,21.688,1.752,31.88,3.808l10.696,20.624 c-16.392,1.984-31.488,8.112-44.28,17.304C72.344,252.152,72.912,238.232,73.856,224.336z M48,344 c0-42.904,33.976-77.928,76.416-79.816L178.8,369.072c6.56,12.656,16.024,23.056,27.192,30.928H48V344z M152,472 c0,13.232-10.768,24-24,24H96c-13.232,0-24-10.768-24-24v-8h80V472z M296,480h-80v-32h80V480z M440,472c0,13.232-10.768,24-24,24 h-32c-13.232,0-24-10.768-24-24v-8h80V472z M480,448h-32h-96h-40v-8c0-4.424-3.584-8-8-8h-96c-4.416,0-8,3.576-8,8v8h-40H64H32 c-8.824,0-16-7.176-16-16s7.176-16,16-16h448c8.824,0,16,7.176,16,16S488.824,448,480,448z"/> <path style="fill:#3C4A53;" d="M380.616,168c7.184,0,13.936-3.176,18.512-8.728c4.576-5.536,6.416-12.768,5.056-19.824 l-10.8-55.992C391.208,72.184,381.304,64,369.816,64H142.184c-11.48,0-21.392,8.184-23.56,19.456l-10.808,56 c-1.36,7.056,0.48,14.28,5.056,19.824c4.576,5.544,11.32,8.72,18.512,8.72H380.616z M125.208,149.096 c-1.528-1.848-2.136-4.256-1.68-6.608l10.808-56.008c0.72-3.752,4.024-6.48,7.848-6.48h227.632c3.832,0,7.128,2.728,7.848,6.488 l10.808,56c0.456,2.352-0.16,4.76-1.68,6.608c-0.904,1.08-2.896,2.904-6.176,2.904h-27.544l-86.968-23.72l-4.208,15.44l30.36,8.28 h-59.184l-86.968-23.72l-4.208,15.44l30.36,8.28h-40.88C128.104,152,126.112,150.176,125.208,149.096z"/> <path style="fill:#3C4A53;" d="M104,304c-22.056,0-40,17.944-40,40s17.944,40,40,40s40-17.944,40-40S126.056,304,104,304z M104,368 c-13.232,0-24-10.768-24-24s10.768-24,24-24s24,10.768,24,24S117.232,368,104,368z"/> <path style="fill:#3C4A53;" d="M368,344c0,22.056,17.944,40,40,40s40-17.944,40-40s-17.944-40-40-40S368,321.944,368,344z M408,320 c13.232,0,24,10.768,24,24s-10.768,24-24,24s-24-10.768-24-24S394.768,320,408,320z"/> <path style="fill:#3C4A53;" d="M243.856,329.072c1.288,0.728,2.344,1.784,3.056,3.056c1.608,2.864,4.8,4.448,8.048,4.016 c0.008,0,0.84-0.112,1.032-0.136c0.192,0.024,1.032,0.136,1.032,0.136c0.36,0.048,0.72,0.072,1.072,0.072 c2.864,0,5.544-1.536,6.976-4.088c0.712-1.272,1.776-2.328,3.056-3.056c2.84-1.6,4.424-4.768,4-7.992c0-0.024-0.144-1-0.144-1.032 l0.144-1.128c0.416-3.224-1.168-6.392-4-7.992c-1.288-0.728-2.344-1.784-3.056-3.056c-1.6-2.856-4.768-4.416-8.048-4.016 c-0.008,0-0.984,0.144-1,0.144l-1.072-0.144c-3.24-0.392-6.44,1.16-8.048,4.016c-0.712,1.272-1.776,2.328-3.056,3.056 c-2.84,1.6-4.424,4.768-4,7.992c0,0.024,0.144,1,0.144,1.032l-0.144,1.128C239.44,324.304,241.016,327.472,243.856,329.072z"/> </g> </g>
</svg>